# xmcd CD database file
#
# Track frame offsets:
#	150
#	20852
#	41522
#	62305
#	83802
#	103195
#	120967
#	140247
#	156835
#	177647
#	198577
#
# Disc length: 2904 seconds
#
# Revision: 0
# Processed by: cddbd v1.5PL3 Copyright (c) Steve Scherf et al.
# Submitted via: CDex 1.51
#
DISCID=990b560b
DTITLE=矢沢永吉 - YES
DYEAR=1997
DGENRE=Japanese Rock
TTITLE0=だから、抱いてくれ
TTITLE1=China Girl
TTITLE2=しなやかな獣たち
TTITLE3=still
TTITLE4=DANCIN' CRAZY
TTITLE5=こんなにも
TTITLE6=心の言葉
TTITLE7=ピリオド
TTITLE8=想いがあふれたら
TTITLE9=Monkey Game
TTITLE10=Moon Light Song
EXTD=YEAR: 1997
EXTT0=
EXTT1=
EXTT2=
EXTT3=
EXTT4=
EXTT5=
EXTT6=
EXTT7=
EXTT8=
EXTT9=
EXTT10=
PLAYORDER=
